<svg xmlns="http://www.w3.org/2000/svg" viewBox="0 0 128 128"><title>welcome</title><path d="M31.64,126S61,90.77,61,90.61a44,44,0,0,0,2-13.27V3.65A1.65,1.65,0,0,0,61.41,2h0A5.66,5.66,0,0,0,55.85,6.5L46.71,43.13,45.8,72.32A10.83,10.83,0,0,1,42,79.71L13.93,104.42" style="fill:#ffd2a1"/><path d="M62.6,4V81.45a17.45,17.45,0,0,1-2.38,8.8L56,97.52a6.76,6.76,0,0,1-.67.92L31.14,126.05l-7.55-10L52.9,85.94a12.61,12.61,0,0,0,3.56-8.38l-.77-34.82a5.3,5.3,0,0,1,0-.69l3.74-40,.67.2A1.88,1.88,0,0,1,62.6,4Z" style="fill:#e8a380"/><path d="M61.41,0a7.66,7.66,0,0,0-7.5,6L44.77,42.65a2,2,0,0,0-.05.42l-.91,29.09a8.83,8.83,0,0,1-3.09,6L12.61,102.92a2,2,0,1,0,2.64,3L43.34,81.23a12.82,12.82,0,0,0,4.46-8.85l.91-29L57.81,6.9A3.67,3.67,0,0,1,61.07,4V31.43a2.2,2.2,0,0,0-.27.26C53.3,40.25,53.3,55.75,53.3,65a2,2,0,0,0,4,0c0-7.25,0-18.54,3.77-26.41V77.4a35.07,35.07,0,0,1-8.91,22.49l-22,24.78a2,2,0,0,0,.17,2.82,2,2,0,0,0,2.82-.17l22-24.77a39.12,39.12,0,0,0,9.92-25V3.65A3.65,3.65,0,0,0,61.41,0Z"/><path d="M57.68,109.08h0c-2.37,2.11-6.31,1.58-8.79-1.16L29.72,86.76C27.23,84,27.13,80.08,29.5,78h0c2.37-2.1,6.31-1.58,8.8,1.17L57.47,100.3C60,103.05,60.05,107,57.68,109.08Z" style="fill:#fbb03b"/><path d="M58.72,101.69,48.83,90.77c1.8,2,1.39,5.24-.9,7.27l-.28.25c-2.29,2-5.6,2.08-7.4.1l9.89,10.92c1.8,2,5.11,1.93,7.4-.1l.28-.25C60.12,106.92,60.52,103.67,58.72,101.69Z" style="fill:#f7931e"/><path d="M50.68,118.08h0c-2.37,2.11-6.31,1.58-8.79-1.16L22.72,95.76C20.23,93,20.13,89.08,22.5,87h0c2.37-2.1,6.31-1.58,8.8,1.17L50.47,109.3C53,112.05,53.05,116,50.68,118.08Z" style="fill:#fbb03b"/><path d="M51.72,110.69,41.83,99.77c1.8,2,1.39,5.24-.9,7.27l-.28.25c-2.29,2-5.6,2.08-7.4.1l9.89,10.92c1.8,2,5.11,1.93,7.4-.1l.28-.25C53.12,115.92,53.52,112.67,51.72,110.69Z" style="fill:#f7931e"/><path d="M60,99,40.78,77.8c-3.22-3.55-8.42-4.14-11.6-1.31a7.16,7.16,0,0,0-2.38,5.05A8.34,8.34,0,0,0,27,83.76a7.33,7.33,0,0,0-5.81,1.73,7.16,7.16,0,0,0-2.38,5.05,9.15,9.15,0,0,0,2.44,6.57L40.4,118.26a9.23,9.23,0,0,0,6.76,3.1,7.08,7.08,0,0,0,7.23-6.83,8.43,8.43,0,0,0-.2-2.23,8,8,0,0,0,1,.06,7.08,7.08,0,0,0,7.23-6.83A9.22,9.22,0,0,0,60,99Zm-10.6,17.63c-1.55,1.37-4.23.92-6-1L24.2,94.42a5.16,5.16,0,0,1-1.41-3.67,3.23,3.23,0,0,1,1-2.27,3.27,3.27,0,0,1,2.21-.8,5.25,5.25,0,0,1,3.78,1.81L49,110.64a5.13,5.13,0,0,1,1.41,3.67A3.19,3.19,0,0,1,49.35,116.59Zm8-9c-1.55,1.37-4.23.92-6-1L32.2,85.42a5.16,5.16,0,0,1-1.41-3.67,3.23,3.23,0,0,1,1-2.27,3.27,3.27,0,0,1,2.21-.8,5.25,5.25,0,0,1,3.78,1.81L57,101.64a5.13,5.13,0,0,1,1.41,3.67A3.19,3.19,0,0,1,57.35,107.59Z"/><path d="M96.36,126S67,90.77,67,90.61a44,44,0,0,1-2-13.27V3.65A1.65,1.65,0,0,1,66.59,2h0A5.66,5.66,0,0,1,72.15,6.5l9.14,36.63.91,29.19A10.83,10.83,0,0,0,86,79.71l28.11,24.71" style="fill:#ffd2a1"/><path d="M65.4,4V81.45a17.45,17.45,0,0,0,2.38,8.8L72,97.52a6.76,6.76,0,0,0,.67.92l24.16,27.61,7.55-10L75.1,85.94a12.61,12.61,0,0,1-3.56-8.38l.77-34.82a5.3,5.3,0,0,0,0-.69l-3.74-40-.67.2A1.88,1.88,0,0,0,65.4,4Z" style="fill:#e8a380"/><path d="M66.59,0a7.66,7.66,0,0,1,7.5,6l9.14,36.64a2,2,0,0,1,0,.42l.91,29.09a8.83,8.83,0,0,0,3.09,6l28.11,24.71a2,2,0,1,1-2.64,3L84.66,81.23a12.82,12.82,0,0,1-4.46-8.85l-.91-29L70.19,6.9A3.67,3.67,0,0,0,66.93,4V31.43a2.2,2.2,0,0,1,.27.26c7.5,8.56,7.5,24.06,7.5,33.32a2,2,0,0,1-4,0c0-7.25,0-18.54-3.77-26.41V77.4a35.07,35.07,0,0,0,8.91,22.49l22,24.78a2,2,0,0,1-.17,2.82,2,2,0,0,1-2.82-.17l-22-24.77a39.12,39.12,0,0,1-9.92-25V3.65A3.65,3.65,0,0,1,66.59,0Z"/><path d="M70.32,109.08h0c2.37,2.11,6.31,1.58,8.79-1.16L98.28,86.76c2.49-2.74,2.59-6.68.22-8.78h0c-2.37-2.1-6.31-1.58-8.8,1.17L70.53,100.3C68.05,103.05,68,107,70.32,109.08Z" style="fill:#fbb03b"/><path d="M69.28,101.69l9.89-10.92c-1.8,2-1.39,5.24.9,7.27l.28.25c2.29,2,5.6,2.08,7.4.1l-9.89,10.92c-1.8,2-5.11,1.93-7.4-.1l-.28-.25C67.88,106.92,67.48,103.67,69.28,101.69Z" style="fill:#f7931e"/><path d="M77.32,118.08h0c2.37,2.11,6.31,1.58,8.79-1.16l19.17-21.16c2.49-2.74,2.59-6.68.22-8.78h0c-2.37-2.1-6.31-1.58-8.8,1.17L77.53,109.3C75.05,112.05,75,116,77.32,118.08Z" style="fill:#fbb03b"/><path d="M76.28,110.69l9.89-10.92c-1.8,2-1.39,5.24.9,7.27l.28.25c2.29,2,5.6,2.08,7.4.1l-9.89,10.92c-1.8,2-5.11,1.93-7.4-.1l-.28-.25C74.88,115.92,74.48,112.67,76.28,110.69Z" style="fill:#f7931e"/><path d="M68.05,99,87.22,77.8c3.22-3.55,8.42-4.14,11.6-1.31a7.16,7.16,0,0,1,2.38,5.05,8.34,8.34,0,0,1-.19,2.22,7.33,7.33,0,0,1,5.81,1.73,7.16,7.16,0,0,1,2.38,5.05,9.15,9.15,0,0,1-2.44,6.57L87.6,118.26a9.23,9.23,0,0,1-6.76,3.1,7.08,7.08,0,0,1-7.23-6.83,8.43,8.43,0,0,1,.2-2.23,8,8,0,0,1-1,.06,7.08,7.08,0,0,1-7.23-6.83A9.22,9.22,0,0,1,68.05,99Zm10.6,17.63c1.55,1.37,4.23.92,6-1L103.8,94.42a5.16,5.16,0,0,0,1.41-3.67,3.23,3.23,0,0,0-1-2.27,3.27,3.27,0,0,0-2.21-.8,5.25,5.25,0,0,0-3.78,1.81L79,110.64a5.13,5.13,0,0,0-1.41,3.67A3.19,3.19,0,0,0,78.65,116.59Zm-8-9c1.55,1.37,4.23.92,6-1L95.8,85.42a5.16,5.16,0,0,0,1.41-3.67,3.23,3.23,0,0,0-1-2.27,3.27,3.27,0,0,0-2.21-.8,5.25,5.25,0,0,0-3.78,1.81L71,101.64a5.13,5.13,0,0,0-1.41,3.67A3.19,3.19,0,0,0,70.65,107.59Z"/></svg>